<?xml version="1.0" standalone="no"?>
<!DOCTYPE svg PUBLIC "-//W3C//DTD SVG 20010904//EN"
 "http://www.w3.org/TR/2001/REC-SVG-20010904/DTD/svg10.dtd">
<svg version="1.0" xmlns="http://www.w3.org/2000/svg"
 width="805.000000pt" height="812.000000pt" viewBox="0 0 805.000000 812.000000"
 preserveAspectRatio="xMidYMid meet">
<metadata>
Created by potrace 1.16, written by Peter Selinger 2001-2019
</metadata>
<g transform="translate(0.000000,812.000000) scale(0.100000,-0.100000)"
fill="#000000" stroke="none">
<path d="M4863 7600 c-258 -27 -492 -115 -738 -278 -129 -85 -304 -257 -370
-365 -185 -302 -159 -645 77 -999 125 -186 266 -300 428 -344 87 -24 294 -24
404 0 339 74 710 291 973 569 244 259 374 610 319 865 -58 274 -310 471 -686
536 -111 19 -304 27 -407 16z"/>
<path d="M2348 7140 c-491 -46 -895 -357 -1063 -820 -58 -160 -76 -270 -82
-480 -6 -221 4 -284 58 -392 146 -289 585 -341 1012 -121 183 95 321 216 471
416 271 361 429 759 399 1002 -27 223 -155 333 -438 379 -121 20 -252 25 -357
16z"/>
<path d="M6825 6206 c-304 -58 -542 -180 -823 -421 -447 -384 -673 -853 -583
-1207 63 -244 323 -546 576 -668 138 -67 213 -84 360 -83 182 1 336 49 512
160 239 149 490 413 618 647 158 291 237 644 205 924 -37 333 -182 542 -435
628 -69 23 -99 28 -220 30 -88 2 -166 -2 -210 -10z"/>
<path d="M3532 5215 c-258 -33 -538 -104 -1042 -264 -496 -157 -675 -202 -960
-241 -630 -87 -1006 -283 -1156 -607 -50 -106 -67 -190 -67 -323 -1 -125 9
-185 55 -330 61 -193 151 -348 279 -477 140 -141 304 -232 659 -362 384 -142
570 -250 761 -440 160 -160 262 -317 405 -626 220 -470 302 -611 438 -753 107
-112 180 -165 311 -228 182 -87 367 -127 580 -127 252 1 436 80 621 269 408
414 636 1290 694 2669 5 132 12 301 16 375 16 386 -68 742 -237 991 -54 81
-176 203 -254 256 -138 93 -320 167 -504 204 -130 27 -440 34 -599 14z"/>
<path d="M6880 3446 c-303 -54 -681 -206 -944 -381 -274 -183 -496 -504 -562
-815 -18 -87 -18 -261 1 -334 62 -239 246 -373 570 -415 209 -28 412 -22 596
19 443 96 797 391 965 804 20 49 50 140 67 205 29 112 30 123 31 336 1 189 -2
229 -18 283 -41 137 -132 231 -269 280 -62 22 -92 26 -217 28 -89 2 -174 -2
-220 -10z"/>
</g>
</svg>
